<?xml version="1.0" encoding="utf-8"?>
<!-- Generator: Adobe Illustrator 16.0.0, SVG Export Plug-In . SVG Version: 6.00 Build 0)  -->
<!DOCTYPE svg PUBLIC "-//W3C//DTD SVG 1.1//EN" "http://www.w3.org/Graphics/SVG/1.1/DTD/svg11.dtd">
<svg version="1.1" id="Layer_1" xmlns="http://www.w3.org/2000/svg" xmlns:xlink="http://www.w3.org/1999/xlink" x="0px" y="0px"
	 width="148.755px" height="81.93px" viewBox="0 0 148.755 81.93" enable-background="new 0 0 148.755 81.93" xml:space="preserve">
<g id="wave_2_">
	<path fill="#FFFFFF" d="M98.682,22.063c1.823,0.026,3.33,1.562,3.506,3.524c0,0.235,0.035,2.307,0.076,2.739
		c0.177,2.018,1.283,3.8,2.954,4.759c0.876,0.55,1.865,0.844,2.871,0.844c0.136,0,0.271-0.003,0.382-0.015
		c0.177-0.006,1.883-0.023,1.9-0.023c1.83,0.018,3.33,1.553,3.513,3.577c0,0,0.206,2.7,0.206,2.774
		c0.294,3.242,3.024,5.751,6.102,5.5c1.418-0.117,2.735-0.791,3.688-1.912c1.023-1.209,1.535-2.838,1.395-4.477
		c-0.259-2.936-2.524-5.295-5.331-5.486l-2.635-0.118c-1.877-0.059-3.419-1.55-3.566-3.439c-0.018-0.256-0.135-2.465-0.158-2.783
		c-0.13-1.601-0.859-3.054-2.018-4.092c-0.871-0.797-1.931-1.312-3.048-1.45c-0.389-0.062-0.753-0.07-1.188-0.047
		c-0.359,0-1.707-0.015-1.725-0.015c-1.87-0.062-3.4-1.556-3.559-3.471l-0.248-2.83c-0.252-2.821-2.329-5.113-4.941-5.457
		c-0.406-0.065-0.807-0.085-1.194-0.047c-2.777,0.212-4.966,2.615-5.089,5.607l-0.053,2.821c-0.03,2.026-1.365,3.659-3.054,3.801
		c-0.229,0.009-2.289,0.088-2.601,0.103c-1.535,0.124-2.912,0.895-3.859,2.139c-0.724,0.906-1.159,2-1.277,3.168
		c-0.047,0.42-0.053,0.838-0.023,1.215c0.006,0.173,0.023,1.903,0.023,1.903c-0.023,2.033-1.353,3.674-3.088,3.815L74.018,34.9
		c-2.565,0.197-4.613,2.147-4.995,4.728c-0.059,0.379-0.094,1.259-0.094,1.444L68.87,43.6c0.006,1.979-1.342,3.586-3.159,3.75
		c-0.165,0-0.706-0.015-1.259-0.015c-0.629,0-1.059,0.015-1.318,0.056c-1.982,0.28-3.595,1.409-4.418,3.104
		c-0.559,1.048-0.806,2.242-0.694,3.407c0.012,0.182,0.047,2.053,0.047,2.053c0.029,1.988-1.33,3.589-3.171,3.742
		c-1.471,0.059-4.595,0.123-4.595,0.123c-1.829-0.018-3.336-1.559-3.506-3.57l-0.065-0.895c-0.023-0.212-0.018-0.518,0-0.812
		c0-0.376,0.006-0.729-0.018-0.988c-0.159-2.023-1.294-3.812-2.977-4.78c-1-0.608-2.165-0.886-3.236-0.791l-0.188,0.006
		c-0.153,0.012-0.347,0.018-0.465,0.026l-1.229-0.026c-1.841-0.006-3.342-1.554-3.53-3.577l-0.2-2.554c0-0.07,0-0.138-0.012-0.217
		c-0.277-3.233-3.024-5.736-6.084-5.492c-1.423,0.112-2.741,0.779-3.688,1.897c-1.023,1.224-1.542,2.841-1.4,4.489
		c0.247,2.933,2.542,5.283,5.33,5.48l2.654,0.117c1.871,0.06,3.401,1.551,3.553,3.434l0.112,2.118
		c0.006,0.247,0.018,0.447,0.035,0.683c0.135,1.6,0.871,3.07,2.042,4.089c0.865,0.806,1.9,1.294,3.006,1.441
		c0.389,0.059,0.776,0.082,1.2,0.053c0.359,0,1.741,0.006,1.741,0.006c1.854,0.059,3.389,1.565,3.56,3.472l0.235,2.835
		c0.247,2.812,2.33,5.113,4.954,5.46c0.276,0.035,0.547,0.059,0.8,0.059c0.136,0,0.271,0,0.395-0.012
		c2.771-0.224,4.96-2.624,5.083-5.601l0.053-2.836c0.036-2.023,1.359-3.653,3.06-3.789c0,0,2.307-0.094,2.595-0.117
		c1.53-0.118,2.906-0.883,3.854-2.124c0.724-0.9,1.165-2.006,1.294-3.171c0.047-0.424,0.053-0.848,0.012-1.218
		c0-0.177-0.012-1.918-0.012-1.918c0.012-2.03,1.347-3.66,3.083-3.795l2.624-0.212c2.536-0.194,4.625-2.13,5.078-4.687
		c0.012-0.07,0.023-0.126,0.076-1.276l-0.012-2.754c-0.006-1.991,1.365-3.604,3.194-3.739l0.548-0.05h0.111
		c0.171,0,0.406,0.006,0.653,0.015c0.465,0.009,0.941,0.021,1.188,0.006c1.918-0.156,3.583-1.33,4.459-3.112
		c0.5-0.953,0.736-2.085,0.688-3.386c-0.006-0.756-0.053-2.062-0.053-2.062c-0.012-2.003,1.359-3.613,3.188-3.757
		C94.086,22.187,97.675,22.048,98.682,22.063"/>
	<path fill="#FFFFFF" d="M64.44,25.343c1.777-0.15,3.124-1.803,3.094-3.848c0,0-0.035-1.897-0.047-2.083
		c-0.094-1.233,0.136-2.442,0.683-3.512c0.865-1.845,2.524-3.057,4.418-3.212c0.083-0.003,0.335-0.021,1.959-0.021h0.523
		c1.782-0.167,3.101-1.818,3.083-3.851l0.018-2.868c0.035-3.153,2.2-5.701,5.024-5.93c3.036-0.259,5.742,2.321,6.013,5.651
		c0.035,0.415,0.029,0.833-0.018,1.247c-0.253,2.889-2.359,5.151-5.019,5.369L81.596,12.5c-1.694,0.144-2.994,1.815-3.012,3.907
		c0,0,0.018,1.765,0.018,1.959c0.041,0.403,0.041,0.838-0.018,1.277c-0.118,1.177-0.554,2.297-1.26,3.224
		c-0.953,1.285-2.312,2.071-3.818,2.2c-0.288,0.023-2.318,0.109-2.553,0.118c-1.665,0.135-2.954,1.806-2.983,3.889l-0.047,2.924
		c-0.124,3.062-2.289,5.53-5.03,5.754c-0.129,0.006-0.253,0.012-0.389,0.012c-0.247,0-0.518-0.015-0.788-0.062
		c-2.595-0.359-4.654-2.724-4.895-5.613l-0.229-2.916c-0.165-1.959-1.665-3.495-3.489-3.565l-1.536-0.033
		c-0.194,0.015-0.512,0.012-0.729,0.012c-0.271,0-0.471-0.018-0.641-0.032c-1.083-0.159-2.112-0.683-2.965-1.503
		c-1.147-1.053-1.859-2.551-1.995-4.195c-0.029-0.329-0.135-2.594-0.147-2.868c-0.159-1.933-1.748-3.653-3.565-3.715l-2.6-0.127
		c-2.771-0.197-5.036-2.609-5.284-5.633c-0.124-1.709,0.376-3.409,1.442-4.663c0.929-1.103,2.212-1.782,3.589-1.897
		c0.141-0.009,0.282-0.015,0.423-0.015c2.877,0,5.336,2.492,5.595,5.669c0.006,0.103,0.224,2.848,0.224,2.848
		c0.159,2.077,1.735,3.851,3.524,3.865c0,0,1.659-0.015,1.841-0.023c0.118-0.012,0.253-0.015,0.4-0.015
		c0.982,0,1.965,0.288,2.83,0.859c1.641,0.979,2.747,2.815,2.918,4.895c0.035,0.465,0.064,2.574,0.07,2.821
		c0.153,2.018,1.642,3.592,3.442,3.622C59.939,25.479,62.798,25.434,64.44,25.343"/>
	<path fill="#FFFFFF" d="M30.787,24.49c1.782,0.018,3.712,2.115,3.883,4.127c0,0.25,0.029,2.365,0.07,2.815
		c0.177,2.071,1.277,3.9,2.948,4.889c0.847,0.559,1.841,0.854,2.824,0.854c0.147,0,0.283-0.006,0.4-0.015
		c0.183-0.006,1.865-0.021,1.865-0.021c1.788,0.021,3.248,1.597,3.43,3.666c0,0,0.206,2.665,0.212,2.848
		c0.282,3.327,2.965,5.903,6.048,5.647c3.071-0.256,5.319-3.18,5.048-6.548c-0.241-3.021-2.506-5.434-5.29-5.627l-2.612-0.129
		c-1.83-0.059-3.324-1.595-3.483-3.527c-0.012-0.262-0.118-2.533-0.147-2.859c-0.147-1.629-0.847-3.124-1.994-4.186
		c-0.854-0.83-1.895-1.348-2.989-1.495c-0.4-0.062-0.853-0.085-1.188-0.056h-0.147c-0.459,0-1.56-0.006-1.589-0.006
		c-1.818-0.073-3.759-2.118-3.93-4.086l-0.235-2.897c-0.235-2.892-2.312-5.263-4.925-5.613c-0.253-0.035-0.518-0.056-0.765-0.056
		c-0.135,0-0.271,0-0.418,0.015c-2.741,0.227-4.912,2.688-5.042,5.742l-0.059,2.918c-0.018,2.083-1.318,3.753-2.965,3.895
		c-0.235,0.003-2.259,0.082-2.571,0.106c-1.524,0.124-2.907,0.917-3.848,2.209c-0.712,0.933-1.142,2.065-1.26,3.245
		c-0.047,0.406-0.047,0.827-0.018,1.262c0.277,3.336,2.995,5.898,6.048,5.648c1.912-0.15,3.571-1.362,4.442-3.204
		c0.542-1.068,0.783-2.286,0.683-3.495c0-0.183-0.053-2.095-0.053-2.095c-0.029-2.041,1.317-3.691,3.112-3.839
		C26.274,24.622,28.934,24.481,30.787,24.49"/>
	<path fill="#FFFFFF" d="M88.873,56.46c1.789,0.023,3.266,1.601,3.437,3.625c0.006,0.229,0.023,2.353,0.07,2.823
		c0.171,2.06,1.282,3.907,2.919,4.884c0.858,0.564,1.847,0.858,2.829,0.858c0.136,0,0.276,0,0.389-0.018
		c0.194-0.006,1.854-0.018,1.854-0.018c1.788,0.018,3.482,1.747,3.653,3.824c0,0,0.218,2.748,0.229,2.859
		c0.253,3.177,2.712,5.672,5.583,5.672c0.142,0,0.289-0.012,0.43-0.029c1.377-0.112,2.653-0.789,3.595-1.9
		c1.042-1.247,1.571-2.942,1.43-4.66c-0.247-3.012-2.507-5.437-5.277-5.624l-2.606-0.13c-1.818-0.07-3.542-1.753-3.695-3.683
		c-0.006-0.265-0.117-2.542-0.141-2.871c-0.141-1.636-0.854-3.13-1.994-4.184c-0.859-0.829-1.889-1.353-2.966-1.5
		c-0.159-0.029-0.37-0.035-0.642-0.035c-0.205,0-0.535,0.006-0.729,0.018l-1.536-0.047c-1.829-0.076-3.324-1.595-3.489-3.571
		l-0.234-2.906c-0.236-2.895-2.301-5.254-4.89-5.61c-0.276-0.047-0.535-0.067-0.788-0.067c-0.136,0-0.265,0.009-0.389,0.021
		c-2.753,0.221-4.906,2.683-5.03,5.751l-0.059,2.912c-0.018,2.089-1.306,3.766-2.978,3.901c-0.223,0.012-2.259,0.094-2.547,0.117
		c-1.518,0.124-2.877,0.906-3.824,2.2c-0.7,0.918-1.142,2.036-1.259,3.213c-0.041,0.435-0.053,0.882-0.023,1.282
		c0.006,0.188,0.023,1.965,0.023,1.965c-0.023,2.083-1.318,3.76-3.006,3.896l-2.583,0.224c-2.653,0.211-4.76,2.482-5.019,5.377
		c-0.041,0.4-0.047,0.823-0.012,1.241c0.271,3.336,2.971,5.901,6.013,5.643c2.824-0.224,4.989-2.771,5.024-5.925l0.018-2.865
		c-0.018-2.035,1.301-3.694,3.083-3.859h0.524c1.624,0,1.882-0.012,1.954-0.012c1.9-0.159,3.57-1.377,4.424-3.213
		c0.547-1.07,0.776-2.294,0.683-3.518c-0.012-0.188-0.047-2.083-0.047-2.083c-0.029-2.036,1.306-3.7,3.095-3.848
		C84.367,56.59,85.826,56.437,88.873,56.46"/>
	<path fill="#FFFFFF" d="M122.32,57.46c1.783-0.152,3.113-1.794,3.077-3.824c0,0-0.035-1.899-0.041-2.082
		c-0.111-1.209,0.136-2.418,0.677-3.483c0.865-1.835,2.5-3.026,4.4-3.183c3.019-0.247,5.713,2.304,5.972,5.619
		c0.036,0.435,0.036,0.853-0.012,1.247c-0.111,1.188-0.547,2.317-1.247,3.235c-0.941,1.289-2.301,2.077-3.801,2.2
		c-0.306,0.024-2.312,0.101-2.541,0.112c-1.654,0.135-2.931,1.794-2.948,3.871l-0.059,2.9c-0.124,3.042-2.271,5.495-4.989,5.719
		c-0.141,0.012-0.271,0.012-0.406,0.012c-0.253,0-0.518-0.012-0.771-0.059c-2.583-0.348-4.636-2.7-4.871-5.577l-0.241-2.896
		c-0.159-1.953-2.077-3.988-3.883-4.053c-0.018,0-1.112-0.012-1.565-0.012h-0.159c-0.323,0.029-0.765,0.012-1.17-0.054
		c-1.083-0.152-2.106-0.671-2.954-1.488c-1.13-1.059-1.847-2.548-1.977-4.171c-0.023-0.318-0.136-2.58-0.147-2.833
		c-0.158-1.933-1.635-3.454-3.447-3.516l-2.595-0.124c-2.747-0.202-4.983-2.609-5.219-5.609c-0.282-3.339,1.959-6.266,4.989-6.51
		c3.048-0.256,5.707,2.306,5.983,5.616c0.012,0.185,0.206,2.833,0.206,2.833c0.176,2.06,1.647,3.627,3.406,3.645
		c0,0,1.659-0.006,1.848-0.018c0.117-0.015,0.247-0.015,0.377-0.015c0.982,0,1.971,0.301,2.823,0.845
		c1.636,0.991,2.73,2.812,2.889,4.874c0.054,0.441,0.089,2.565,0.089,2.801c0.17,2.012,2.07,4.083,3.848,4.106
		C117.861,57.59,121.097,57.531,122.32,57.46"/>
	<path fill="#FFFFFF" d="M0.022,46.265c0.276,3.229,2.983,5.719,6.125,5.478c1.506-0.118,2.877-0.859,3.854-2.08
		c0.93-1.197,1.376-2.718,1.247-4.274c-0.259-3.086-2.765-5.504-5.695-5.504c-0.141,0-0.294,0.006-0.417,0.021
		C2.035,40.148-0.254,42.999,0.022,46.265"/>
	<path fill="#FFFFFF" d="M137.535,36.842c0.276,3.233,2.977,5.724,6.113,5.483c1.529-0.123,2.895-0.868,3.848-2.083
		c0.953-1.2,1.389-2.715,1.259-4.28c-0.253-3.085-2.759-5.498-5.689-5.498c-0.142,0-0.282,0-0.43,0.018
		C139.541,30.721,137.265,33.574,137.535,36.842"/>
</g>
</svg>
